# Blender 3.5.0
# www.blender.org
mtllib keycap.mtl
o Cube
v 10.644453 1.207876 -0.480732
v 11.000000 0.000000 -1.000000
v 10.644453 1.207876 0.808173
v 11.000000 0.000000 1.000000
v 9.355547 1.207876 -0.480732
v 9.000000 0.000000 -1.000000
v 9.355547 1.207876 0.808173
v 9.000000 0.000000 1.000000
v 10.628853 1.207876 -0.480732
v 9.371147 1.207876 -0.480732
v 10.628853 1.207876 0.808173
v 9.371147 1.207876 0.808173
v 9.548419 1.154101 0.816714
v 10.451581 1.154101 0.816714
v 10.000000 1.109624 0.823777
v 9.548419 1.154101 -0.503850
v 10.000000 1.109624 -0.522970
v 10.451581 1.154101 -0.503850
vn -0.0000 1.0000 -0.0000
vn 0.1437 0.9896 -0.0000
vn 0.1469 0.9891 -0.0000
vn -0.1469 0.9891 -0.0000
vn -0.1437 0.9896 -0.0000
vn -0.0000 0.1568 0.9876
vn -0.9593 0.2824 -0.0000
vn -0.0000 -1.0000 -0.0000
vn 0.9593 0.2824 -0.0000
vn -0.0000 0.3950 -0.9187
vn -0.1904 0.9817 -0.0000
vn -0.1872 0.9823 -0.0000
vn 0.1904 0.9817 -0.0000
vn 0.1872 0.9823 -0.0000
vt 0.625000 0.500000
vt 0.375000 0.500000
vt 0.625000 0.750000
vt 0.375000 0.750000
vt 0.875000 0.500000
vt 0.625000 0.250000
vt 0.125000 0.500000
vt 0.375000 0.250000
vt 0.875000 0.750000
vt 0.625000 1.000000
vt 0.625000 0.000000
vt 0.375000 1.000000
vt 0.375000 0.000000
vt 0.125000 0.750000
vt 0.628026 0.500000
vt 0.625000 0.496974
vt 0.955992 0.817385
vt 0.871974 0.500000
vt 0.625000 0.253026
vt 0.044008 0.817385
vt 0.628026 0.750000
vt 0.625000 0.753026
vt 0.955992 0.678178
vt 0.871974 0.750000
vt 0.625000 0.996974
vt 0.044008 0.678178
vt 0.613870 0.961624
vt 0.031250 0.677255
vt 0.613870 0.788376
vt 0.968750 0.677255
vt 0.604664 0.875000
vt 1.000000 0.676492
vt 0.000000 0.676492
vt 0.613870 0.288376
vt 0.031250 0.819881
vt 0.604664 0.375000
vt 1.000000 0.821947
vt 0.000000 0.821947
vt 0.613870 0.461624
vt 0.968750 0.819881
s 1
usemtl Material
f 5/5/1 7/9/1 12/24/2 10/18/3
f 3/3/1 1/1/1 9/15/4 11/21/5
f 12/25/6 7/10/6 8/12/6 4/4/6 3/3/6 11/22/6 14/29/6 15/31/6 13/27/6
f 8/13/7 7/11/7 5/6/7 6/8/7
f 6/7/8 2/2/8 4/4/8 8/14/8
f 2/2/9 1/1/9 3/3/9 4/4/9
f 9/16/10 1/1/10 2/2/10 6/8/10 5/6/10 10/19/10 16/34/10 17/36/10 18/39/10
usemtl 
f 17/37/1 15/32/1 14/30/11 18/40/12
f 11/23/5 9/17/4 18/40/12 14/30/11
f 10/20/3 12/26/2 13/28/13 16/35/14
f 16/35/14 13/28/13 15/33/1 17/38/1
o Cube.001
v 8.644453 1.207876 -0.480732
v 9.000000 0.000000 -1.000000
v 8.644453 1.207876 0.808173
v 9.000000 0.000000 1.000000
v 7.355547 1.207876 -0.480732
v 7.000000 0.000000 -1.000000
v 7.355547 1.207876 0.808173
v 7.000000 0.000000 1.000000
v 8.628853 1.207876 -0.480732
v 7.371147 1.207876 -0.480732
v 8.628853 1.207876 0.808173
v 7.371147 1.207876 0.808173
v 7.548419 1.154101 0.816714
v 8.451581 1.154101 0.816714
v 8.000000 1.109624 0.823777
v 7.548419 1.154101 -0.503850
v 8.000000 1.109624 -0.522970
v 8.451581 1.154101 -0.503850
vn -0.0000 1.0000 -0.0000
vn 0.1437 0.9896 -0.0000
vn 0.1469 0.9891 -0.0000
vn -0.1469 0.9891 -0.0000
vn -0.1437 0.9896 -0.0000
vn -0.0000 0.1568 0.9876
vn -0.9593 0.2824 -0.0000
vn -0.0000 -1.0000 -0.0000
vn 0.9593 0.2824 -0.0000
vn -0.0000 0.3950 -0.9187
vn -0.1904 0.9817 -0.0000
vn -0.1872 0.9823 -0.0000
vn 0.1904 0.9817 -0.0000
vn 0.1872 0.9823 -0.0000
vt 0.625000 0.500000
vt 0.375000 0.500000
vt 0.625000 0.750000
vt 0.375000 0.750000
vt 0.875000 0.500000
vt 0.625000 0.250000
vt 0.125000 0.500000
vt 0.375000 0.250000
vt 0.875000 0.750000
vt 0.625000 1.000000
vt 0.625000 0.000000
vt 0.375000 1.000000
vt 0.375000 0.000000
vt 0.125000 0.750000
vt 0.628026 0.500000
vt 0.625000 0.496974
vt 0.955992 0.817385
vt 0.871974 0.500000
vt 0.625000 0.253026
vt 0.044008 0.817385
vt 0.628026 0.750000
vt 0.625000 0.753026
vt 0.955992 0.678178
vt 0.871974 0.750000
vt 0.625000 0.996974
vt 0.044008 0.678178
vt 0.613870 0.961624
vt 0.031250 0.677255
vt 0.613870 0.788376
vt 0.968750 0.677255
vt 0.604664 0.875000
vt 1.000000 0.676492
vt 0.000000 0.676492
vt 0.613870 0.288376
vt 0.031250 0.819881
vt 0.604664 0.375000
vt 1.000000 0.821947
vt 0.000000 0.821947
vt 0.613870 0.461624
vt 0.968750 0.819881
s 1
usemtl Material.001
f 23/45/15 25/49/15 30/64/16 28/58/17
f 21/43/15 19/41/15 27/55/18 29/61/19
f 30/65/20 25/50/20 26/52/20 22/44/20 21/43/20 29/62/20 32/69/20 33/71/20 31/67/20
f 26/53/21 25/51/21 23/46/21 24/48/21
f 24/47/22 20/42/22 22/44/22 26/54/22
f 20/42/23 19/41/23 21/43/23 22/44/23
f 27/56/24 19/41/24 20/42/24 24/48/24 23/46/24 28/59/24 34/74/24 35/76/24 36/79/24
usemtl 
f 35/77/15 33/72/15 32/70/25 36/80/26
f 29/63/19 27/57/18 36/80/26 32/70/25
f 28/60/17 30/66/16 31/68/27 34/75/28
f 34/75/28 31/68/27 33/73/15 35/78/15
o Cube.002
v 6.644453 1.207876 -0.480732
v 7.000000 0.000000 -1.000000
v 6.644453 1.207876 0.808173
v 7.000000 0.000000 1.000000
v 5.355547 1.207876 -0.480732
v 5.000000 0.000000 -1.000000
v 5.355547 1.207876 0.808173
v 5.000000 0.000000 1.000000
v 6.628853 1.207876 -0.480732
v 5.371147 1.207876 -0.480732
v 6.628853 1.207876 0.808173
v 5.371147 1.207876 0.808173
v 5.548419 1.154101 0.816714
v 6.451581 1.154101 0.816714
v 6.000000 1.109624 0.823777
v 5.548419 1.154101 -0.503850
v 6.000000 1.109624 -0.522970
v 6.451581 1.154101 -0.503850
vn -0.0000 1.0000 -0.0000
vn 0.1437 0.9896 -0.0000
vn 0.1469 0.9891 -0.0000
vn -0.1469 0.9891 -0.0000
vn -0.1437 0.9896 -0.0000
vn -0.0000 0.1568 0.9876
vn -0.9593 0.2824 -0.0000
vn -0.0000 -1.0000 -0.0000
vn 0.9593 0.2824 -0.0000
vn -0.0000 0.3950 -0.9187
vn -0.1904 0.9817 -0.0000
vn -0.1872 0.9823 -0.0000
vn 0.1904 0.9817 -0.0000
vn 0.1872 0.9823 -0.0000
vt 0.625000 0.500000
vt 0.375000 0.500000
vt 0.625000 0.750000
vt 0.375000 0.750000
vt 0.875000 0.500000
vt 0.625000 0.250000
vt 0.125000 0.500000
vt 0.375000 0.250000
vt 0.875000 0.750000
vt 0.625000 1.000000
vt 0.625000 0.000000
vt 0.375000 1.000000
vt 0.375000 0.000000
vt 0.125000 0.750000
vt 0.628026 0.500000
vt 0.625000 0.496974
vt 0.955992 0.817385
vt 0.871974 0.500000
vt 0.625000 0.253026
vt 0.044008 0.817385
vt 0.628026 0.750000
vt 0.625000 0.753026
vt 0.955992 0.678178
vt 0.871974 0.750000
vt 0.625000 0.996974
vt 0.044008 0.678178
vt 0.613870 0.961624
vt 0.031250 0.677255
vt 0.613870 0.788376
vt 0.968750 0.677255
vt 0.604664 0.875000
vt 1.000000 0.676492
vt 0.000000 0.676492
vt 0.613870 0.288376
vt 0.031250 0.819881
vt 0.604664 0.375000
vt 1.000000 0.821947
vt 0.000000 0.821947
vt 0.613870 0.461624
vt 0.968750 0.819881
s 1
usemtl Material.002
f 41/85/29 43/89/29 48/104/30 46/98/31
f 39/83/29 37/81/29 45/95/32 47/101/33
f 48/105/34 43/90/34 44/92/34 40/84/34 39/83/34 47/102/34 50/109/34 51/111/34 49/107/34
f 44/93/35 43/91/35 41/86/35 42/88/35
f 42/87/36 38/82/36 40/84/36 44/94/36
f 38/82/37 37/81/37 39/83/37 40/84/37
f 45/96/38 37/81/38 38/82/38 42/88/38 41/86/38 46/99/38 52/114/38 53/116/38 54/119/38
usemtl 
f 53/117/29 51/112/29 50/110/39 54/120/40
f 47/103/33 45/97/32 54/120/40 50/110/39
f 46/100/31 48/106/30 49/108/41 52/115/42
f 52/115/42 49/108/41 51/113/29 53/118/29
o Cube.003
v 4.644453 1.207876 -0.480732
v 5.000000 0.000000 -1.000000
v 4.644453 1.207876 0.808173
v 5.000000 0.000000 1.000000
v 3.355547 1.207876 -0.480732
v 3.000000 0.000000 -1.000000
v 3.355547 1.207876 0.808173
v 3.000000 0.000000 1.000000
v 4.628853 1.207876 -0.480732
v 3.371147 1.207876 -0.480732
v 4.628853 1.207876 0.808173
v 3.371147 1.207876 0.808173
v 3.548419 1.154101 0.816714
v 4.451581 1.154101 0.816714
v 4.000000 1.109624 0.823777
v 3.548419 1.154101 -0.503850
v 4.000000 1.109624 -0.522970
v 4.451581 1.154101 -0.503850
vn -0.0000 1.0000 -0.0000
vn 0.1437 0.9896 -0.0000
vn 0.1469 0.9891 -0.0000
vn -0.1469 0.9891 -0.0000
vn -0.1437 0.9896 -0.0000
vn -0.0000 0.1568 0.9876
vn -0.9593 0.2824 -0.0000
vn -0.0000 -1.0000 -0.0000
vn 0.9593 0.2824 -0.0000
vn -0.0000 0.3950 -0.9187
vn -0.1904 0.9817 -0.0000
vn -0.1872 0.9823 -0.0000
vn 0.1904 0.9817 -0.0000
vn 0.1872 0.9823 -0.0000
vt 0.625000 0.500000
vt 0.375000 0.500000
vt 0.625000 0.750000
vt 0.375000 0.750000
vt 0.875000 0.500000
vt 0.625000 0.250000
vt 0.125000 0.500000
vt 0.375000 0.250000
vt 0.875000 0.750000
vt 0.625000 1.000000
vt 0.625000 0.000000
vt 0.375000 1.000000
vt 0.375000 0.000000
vt 0.125000 0.750000
vt 0.628026 0.500000
vt 0.625000 0.496974
vt 0.955992 0.817385
vt 0.871974 0.500000
vt 0.625000 0.253026
vt 0.044008 0.817385
vt 0.628026 0.750000
vt 0.625000 0.753026
vt 0.955992 0.678178
vt 0.871974 0.750000
vt 0.625000 0.996974
vt 0.044008 0.678178
vt 0.613870 0.961624
vt 0.031250 0.677255
vt 0.613870 0.788376
vt 0.968750 0.677255
vt 0.604664 0.875000
vt 1.000000 0.676492
vt 0.000000 0.676492
vt 0.613870 0.288376
vt 0.031250 0.819881
vt 0.604664 0.375000
vt 1.000000 0.821947
vt 0.000000 0.821947
vt 0.613870 0.461624
vt 0.968750 0.819881
s 1
usemtl Material.003
f 59/125/43 61/129/43 66/144/44 64/138/45
f 57/123/43 55/121/43 63/135/46 65/141/47
f 66/145/48 61/130/48 62/132/48 58/124/48 57/123/48 65/142/48 68/149/48 69/151/48 67/147/48
f 62/133/49 61/131/49 59/126/49 60/128/49
f 60/127/50 56/122/50 58/124/50 62/134/50
f 56/122/51 55/121/51 57/123/51 58/124/51
f 63/136/52 55/121/52 56/122/52 60/128/52 59/126/52 64/139/52 70/154/52 71/156/52 72/159/52
usemtl 
f 71/157/43 69/152/43 68/150/53 72/160/54
f 65/143/47 63/137/46 72/160/54 68/150/53
f 64/140/45 66/146/44 67/148/55 70/155/56
f 70/155/56 67/148/55 69/153/43 71/158/43
